<svg enable-background="new 0 0 407 90" viewBox="0 0 407 90" xmlns="http://www.w3.org/2000/svg" xmlns:xlink="http://www.w3.org/1999/xlink"><linearGradient id="a"><stop offset="0" stop-color="#477d98"/><stop offset="1" stop-color="#6babd0"/></linearGradient><linearGradient id="b" gradientTransform="matrix(-1 0 0 1 -2533.5825 -628)" gradientUnits="userSpaceOnUse" x1="-2610.0452" x2="-2627.6702" xlink:href="#a" y1="661.95" y2="661.95"/><linearGradient id="c" gradientUnits="userSpaceOnUse" x1=".5375" x2="18.1625" y1="33.95" y2="33.95"><stop offset="0" stop-color="#6babd0"/><stop offset="1" stop-color="#477d98"/></linearGradient><linearGradient id="d" gradientUnits="userSpaceOnUse" x1="14.1625" x2="80.5625" xlink:href="#a" y1="33.95" y2="33.95"/><g fill="#fff"><path d="m208.1 15.1c-4.8 0-7.2-1.9-7.2-5.8 0-3.8 2.4-5.7 7.2-5.7 4.7 0 7.1 1.9 7.1 5.7 0 3.9-2.4 5.8-7.1 5.8zm-6.8 9.1c0-3.7 2.3-5.6 6.8-5.6 4.6 0 6.9 1.9 6.9 5.6v33c0 3.8-2.2 5.7-6.8 5.7-4.5 0-6.9-1.9-6.9-5.7z"/><path d="m227.7 33c0-9.4 7.4-14.1 22.2-14.1h4.6c4.4 0 6.5 1.7 6.5 5.4s-2.2 5.5-6.5 5.5h-5.3c-5.3 0-7.9 1-7.9 3.1v24.3c0 3.8-2.3 5.7-6.9 5.7-4.5 0-6.8-2-6.8-5.7z"/><path d="m293.1 62.5c-14.8 0-22.2-4.7-22.2-14.2v-40.2c0-3.7 2.2-5.6 6.8-5.6 4.5 0 6.9 1.9 6.9 5.6v10.9h26c14.9 0 22.2 4.7 22.2 14.1v15.2c0 9.5-7.4 14.2-22.2 14.2zm-8.6-32.7v18.7c0 2.1 2.6 3.2 7.9 3.2h18.7c5.3 0 7.9-1.1 7.9-3.2v-15.5c0-2.1-2.6-3.2-7.9-3.2z"/><path d="m374.2 76.4c-4 0-6.2-1.7-6.2-5.1 0-3.5 2.2-5.2 6.2-5.2h11.1c5 0 7.4-1 7.4-3v-3.3h-25.5c-14.8 0-22.2-5-22.2-14.9v-20.7c0-3.7 2.2-5.6 6.8-5.6 4.5 0 6.9 1.9 6.9 5.6v21.7c0 2.6 2.6 3.9 7.7 3.9h26.4v-25.6c0-3.7 2.3-5.6 6.9-5.6 4.5 0 6.8 1.9 6.8 5.6v38.8c0 8.9-7 13.4-21.1 13.4z"/><path d="m123.2 62.5c-4 0-6-1.5-6-4.4v-48.3c0-2.9 1.9-4.4 5.5-4.4h38.9c17.9 0 26.9 5.3 26.9 15.9v25.3c0 10.7-9 15.9-26.9 15.9zm51.3-40.7c0-3.6-4-5.5-12.2-5.5h-30.4c-.5 0-.8.2-.8.7v34c0 .4.3.7.8.7h30.5c8.1 0 12.2-1.9 12.2-5.5z"/></g><path d="m76.5 48.2h9.4c3.9 0 7.2-2.9 7.7-6.7v-.2c.7-4.8.7-9.8 0-14.6v-.2c-.5-3.8-3.8-6.7-7.7-6.7h-9.4z" fill="url(#b)"/><path d="m18.2 48.2h-9.4c-3.9 0-7.2-2.9-7.7-6.7v-.2c-.7-4.8-.7-9.8 0-14.6v-.2c.5-3.8 3.8-6.7 7.7-6.7h9.4z" fill="url(#c)"/><path d="m47.4 67.2c-18.3 0-33.2-14.9-33.2-33.2s14.8-33.2 33.2-33.2 33.2 14.9 33.2 33.2-14.9 33.2-33.2 33.2z" fill="url(#d)"/><circle cx="47.4" cy="34" fill="#fff" r="21.7"/><path d="m56.3 31.5c-5 0-9-4-9-9 0-1 .2-1.9.4-2.8-.1 0-.3 0-.4 0-7.9 0-14.2 6.4-14.2 14.2 0 7.9 6.4 14.2 14.2 14.2s14.2-6.4 14.2-14.2c0-1.3-.2-2.6-.5-3.8-1.3.9-2.9 1.4-4.7 1.4z" fill="#3a3a39"/><g enable-background="new" fill="#6babd0"><path d="m118.6 75.2h6.6c1.3 0 2.9 0 4 1.1.6.6 1 1.5 1 2.4 0 1.1-.5 2.4-2.1 3 .6.1 2.8.7 2.8 3.4 0 1.7-1 3.1-2.4 3.6-1 .4-2.5.4-3.8.4h-6.1zm3.6 5.6h1.9c1.2 0 2.7 0 2.7-1.5 0-1.4-1.4-1.4-2.8-1.4h-1.8zm0 5.8h2.4c1.1 0 2.7 0 2.7-1.6 0-1.7-1.7-1.7-2.8-1.7h-2.2z"/><path d="m142.2 89.2-1-2.7h-5.2l-.9 2.7h-3.7l5.3-13.9h3.9l5.4 13.9zm-1.9-5.4-1.7-5.1-1.7 5.1z"/><path d="m153.4 81.4h6.4v5.7c-1 .8-2.9 2.2-6.4 2.2-4.9 0-7.2-3.1-7.2-7.2 0-2.2.8-4.4 2.5-5.8 1.5-1.2 3-1.4 4.8-1.4 1.7 0 5.2.1 6.1 4l-3.5.6c-.2-.6-.7-1.9-2.8-1.9-3.2 0-3.6 2.8-3.6 4.3 0 2.4.7 4.7 3.6 4.7 1.4 0 2.3-.5 3.1-1v-1.5h-3z"/><path d="m169 81.4h6.4v5.7c-1 .8-2.9 2.2-6.4 2.2-4.9 0-7.2-3.1-7.2-7.2 0-2.2.8-4.4 2.5-5.8 1.5-1.2 3-1.4 4.8-1.4 1.7 0 5.2.1 6.1 4l-3.5.6c-.2-.6-.7-1.9-2.8-1.9-3.2 0-3.6 2.8-3.6 4.3 0 2.4.7 4.7 3.6 4.7 1.4 0 2.3-.5 3.1-1v-1.5h-3.1z"/><path d="m187.3 89.2-1-2.7h-5.2l-.9 2.7h-3.7l5.3-13.9h3.9l5.4 13.9zm-1.8-5.4-1.7-5.1-1.7 5.1z"/><path d="m198.5 81.4h6.4v5.7c-1 .8-2.9 2.2-6.4 2.2-4.9 0-7.2-3.1-7.2-7.2 0-2.2.8-4.4 2.5-5.8 1.5-1.2 3-1.4 4.8-1.4 1.7 0 5.2.1 6.1 4l-3.5.6c-.2-.6-.7-1.9-2.8-1.9-3.2 0-3.6 2.8-3.6 4.3 0 2.4.7 4.7 3.6 4.7 1.4 0 2.3-.5 3.1-1v-1.5h-3.1z"/><path d="m207.5 75.2h10.9v2.7h-7.4v2.7h6.9v2.6h-6.9v3.3h7.6v2.7h-11.2z"/></g></svg>